<svg width="123" height="25" viewBox="0 0 123 25" fill="none" xmlns="http://www.w3.org/2000/svg">
<g clip-path="url(#clip0_9439_59062)">
<path d="M28.2923 0.495811L16.9753 0.531168L22.5985 4.2092V12.3079L28.2923 8.48842V0.495811Z" fill="#98C1C2"/>
<path d="M22.5979 12.3078L11.3162 12.3432L16.904 16.0212V24.1199L22.5979 20.3004V12.3078Z" fill="#D1263D"/>
<path d="M11.317 4.35061L0 4.38598L5.62312 8.09936V16.1627L11.317 12.3432V4.35061Z" fill="#FD9E1D"/>
</g>
<path d="M42.8809 2.8979H48.9147C51.495 2.8979 52.6463 4.68425 52.6463 6.43091C52.6463 8.17757 51.495 9.96393 48.9147 9.96393H42.8809V2.8979ZM47.049 12.7427L52.805 19.3323H56.5762L50.4233 12.3854L50.979 12.2664C55.1075 11.4327 55.7426 8.17758 55.7426 6.35152C55.7426 2.06427 52.2096 0.119129 48.9147 0.0794296C47.3269 0.0794296 41.1739 0.0794296 39.8242 0.0794296V19.3323H42.9205V12.6633H47.0094L47.049 12.7427Z" fill="#4A5A6B"/>
<path d="M60.5461 11.3533L60.6651 10.9167C61.1811 9.05091 62.7691 7.9394 64.9127 7.9394C67.2152 7.9394 68.6442 9.0509 68.8823 10.9564L68.9221 11.3533H60.5461ZM69.9939 7.50274C68.8426 6.23244 67.0563 5.55759 64.8333 5.55759C60.5857 5.55759 57.7275 8.37605 57.7275 12.5443C57.7275 16.9506 60.5461 19.6896 65.1112 19.6896C67.2548 19.6896 69.3588 18.9355 70.6688 17.7445L68.9221 16.0376C67.9296 16.8315 66.302 17.2284 65.1906 17.2284C62.6897 17.2284 60.943 15.9582 60.6651 13.9336L60.6254 13.5367H71.6612C71.7802 10.9564 71.2245 8.85242 69.9939 7.50274Z" fill="#4A5A6B"/>
<path d="M110.287 5.91488H107.508V19.3323H110.287V5.91488Z" fill="#4A5A6B"/>
<path d="M116.915 18.3796C117.708 19.1339 118.9 19.5309 120.289 19.4911C121.203 19.4514 121.917 19.3323 122.751 19.0147L121.996 16.7124C121.52 16.9108 120.964 17.03 120.528 17.03C119.178 17.03 118.383 16.1566 118.383 14.6878V8.29664H122.274V5.99422H118.424V2.06425L115.644 2.34212V5.99422H113.024V8.29664H115.644V14.6878C115.644 16.3154 116.082 17.546 116.915 18.3796Z" fill="#4A5A6B"/>
<path d="M80.6329 17.0697C78.2113 17.0697 76.2661 15.0849 76.2661 12.703C76.2661 10.2815 78.251 8.33637 80.6329 8.33637C83.0543 8.33637 84.9995 10.3212 84.9995 12.703C84.9995 15.0849 83.0543 17.0697 80.6329 17.0697ZM87.8179 19.2926V5.95457H85.1186V7.14546L84.801 6.90729C83.5703 6.03396 82.1413 5.55759 80.6329 5.55759C76.7028 5.55759 73.5271 8.73334 73.5271 12.6633C73.5271 16.5933 76.7028 19.769 80.6329 19.769C82.1413 19.769 83.5703 19.2926 84.801 18.4193L85.1186 18.1812V19.2926H87.8179Z" fill="#4A5A6B"/>
<path d="M97.9404 8.21725C100.362 8.21725 102.307 10.2021 102.307 12.5839C102.307 15.0054 100.322 16.9506 97.9404 16.9506C95.519 16.9506 93.5738 14.9657 93.5738 12.5839C93.5738 10.1624 95.519 8.21725 97.9404 8.21725ZM97.9404 19.6896C101.87 19.6896 105.046 16.5138 105.046 12.5839C105.046 8.65392 101.87 5.47818 97.9404 5.47818C96.432 5.47818 95.0028 5.95453 93.7723 6.82786L93.4547 7.06605V5.95454H90.7554V24.9693H93.4547V18.1017L93.7723 18.3399C95.0028 19.2133 96.432 19.6896 97.9404 19.6896Z" fill="#4A5A6B"/>
<path d="M108.897 7.62939e-06C108.063 7.62939e-06 107.19 0.516068 107.19 1.70697C107.19 2.85817 108.063 3.41392 108.897 3.41392C109.731 3.41392 110.604 2.89787 110.604 1.70697C110.604 0.516068 109.731 7.62939e-06 108.897 7.62939e-06Z" fill="#4A5A6B"/>
<defs>
<clipPath id="clip0_9439_59062">
<rect width="28.2924" height="23.6949" fill="white" transform="translate(0 0.637207)"/>
</clipPath>
</defs>
</svg>
