<?xml version="1.0" encoding="UTF-8"?>
<svg id="Layer_1" data-name="Layer 1" xmlns="http://www.w3.org/2000/svg" viewBox="0 0 314.6 151.13">
  <defs>
    <style>
      .cls-1 {
        fill: #1d1d1c;
      }

      .cls-2 {
        fill: #4856ea;
      }
    </style>
  </defs>
  <path class="cls-2" d="M35.16,83.67c.13-.58.95-.58,1.08,0,1.54,7.04,3.43,8.92,10.47,10.47.58.13.58.95,0,1.08-7.04,1.54-8.92,3.42-10.47,10.46-.13.58-.95.58-1.08,0-1.54-7.04-3.42-8.91-10.46-10.46-.58-.13-.58-.95,0-1.08,7.04-1.54,8.91-3.43,10.46-10.47Z"/>
  <path class="cls-2" d="M80.17,51.27c.3-1.37,2.25-1.37,2.55,0,3.65,16.65,8.1,21.1,24.75,24.75,1.37.3,1.37,2.26,0,2.56-16.65,3.65-21.1,8.09-24.75,24.75-.3,1.37-2.25,1.37-2.55,0-3.65-16.65-8.1-21.1-24.75-24.75-1.37-.3-1.37-2.25,0-2.56,16.65-3.65,21.1-8.09,24.75-24.75Z"/>
  <path class="cls-2" d="M41.58,33.27c.22-.98,1.62-.98,1.83,0,2.62,11.95,5.81,15.14,17.76,17.76.98.22.98,1.62,0,1.83-11.95,2.62-15.14,5.81-17.76,17.76-.22.98-1.62.98-1.83,0-2.62-11.95-5.81-15.14-17.76-17.76-.98-.22-.98-1.62,0-1.83,11.95-2.62,15.14-5.81,17.76-17.76Z"/>
  <g>
    <path class="cls-1" d="M157.19,89.29h-17.06v28.71h-14.06V33.91h39.41c18.02,0,29.8,11.05,29.8,27.75,0,13.94-8.29,23.91-21.75,26.79l25.59,29.55h-17.54l-24.39-28.71ZM165.36,46.88h-25.35v29.55h25.35c9.97,0,15.98-5.53,15.98-14.78s-6.01-14.78-15.98-14.78Z"/>
    <path class="cls-1" d="M262.08,58.66v59.35h-12.01l-.12-7.93c-4.57,5.77-12.5,9.25-21.63,9.25-17.42,0-29.43-12.73-29.43-31s12.01-31,29.43-31c9.25,0,17.06,3.48,21.63,9.25l.12-7.93h12.01ZM248.62,88.33c0-11.05-7.45-18.74-18.14-18.74s-18.14,7.69-18.14,18.74,7.45,18.74,18.14,18.74,18.14-7.69,18.14-18.74Z"/>
    <path class="cls-1" d="M274.21,41.6c0-4.93,3.6-8.41,8.53-8.41s8.77,3.48,8.77,8.41-3.6,8.17-8.77,8.17-8.53-3.48-8.53-8.17ZM276.01,58.66h13.46v59.35h-13.46v-59.35Z"/>
  </g>
</svg>